<mxfile host="Electron" modified="2024-05-15T23:27:46.509Z" agent="Mozilla/5.0 (Windows NT 10.0; Win64; x64) AppleWebKit/537.36 (KHTML, like Gecko) draw.io/24.2.5 Chrome/120.0.6099.109 Electron/28.1.0 Safari/537.36" etag="FEYF5LfNxohisrB-bSG_" version="24.2.5" type="device">
  <diagram id="R2lEEEUBdFMjLlhIrx00" name="Page-1">
    <mxGraphModel dx="1434" dy="844" grid="1" gridSize="10" guides="1" tooltips="1" connect="1" arrows="1" fold="1" page="1" pageScale="1" pageWidth="850" pageHeight="1100" math="0" shadow="0" extFonts="Permanent Marker^https://fonts.googleapis.com/css?family=Permanent+Marker">
      <root>
        <mxCell id="0" />
        <mxCell id="1" parent="0" />
        <mxCell id="y770Z8pOE6YXqWTsRkas-7" style="edgeStyle=orthogonalEdgeStyle;rounded=0;orthogonalLoop=1;jettySize=auto;html=1;entryX=0;entryY=0.5;entryDx=0;entryDy=0;exitX=0.4;exitY=0.972;exitDx=0;exitDy=0;exitPerimeter=0;" parent="1" source="cgnMnG7LI3iDT3yTp2TT-1" target="wNynJhRlxzuv9-eaUQP0-7" edge="1">
          <mxGeometry relative="1" as="geometry">
            <mxPoint x="200" y="240" as="sourcePoint" />
          </mxGeometry>
        </mxCell>
        <mxCell id="y770Z8pOE6YXqWTsRkas-8" value="(1)" style="edgeLabel;html=1;align=center;verticalAlign=middle;resizable=0;points=[];" parent="y770Z8pOE6YXqWTsRkas-7" vertex="1" connectable="0">
          <mxGeometry x="-0.7005" y="-2" relative="1" as="geometry">
            <mxPoint as="offset" />
          </mxGeometry>
        </mxCell>
        <mxCell id="cgnMnG7LI3iDT3yTp2TT-1" value="Cliente" style="whiteSpace=wrap;html=1;align=center;" parent="1" vertex="1">
          <mxGeometry x="170" y="200" width="110" height="36" as="geometry" />
        </mxCell>
        <mxCell id="cgnMnG7LI3iDT3yTp2TT-2" value="Inmueble" style="whiteSpace=wrap;html=1;align=center;" parent="1" vertex="1">
          <mxGeometry x="490" y="203" width="100" height="40" as="geometry" />
        </mxCell>
        <mxCell id="y770Z8pOE6YXqWTsRkas-4" style="edgeStyle=orthogonalEdgeStyle;rounded=0;orthogonalLoop=1;jettySize=auto;html=1;entryX=0.5;entryY=0;entryDx=0;entryDy=0;" parent="1" source="wNynJhRlxzuv9-eaUQP0-2" target="cgnMnG7LI3iDT3yTp2TT-1" edge="1">
          <mxGeometry relative="1" as="geometry" />
        </mxCell>
        <mxCell id="y770Z8pOE6YXqWTsRkas-11" value="(1)" style="edgeLabel;html=1;align=center;verticalAlign=middle;resizable=0;points=[];" parent="y770Z8pOE6YXqWTsRkas-4" vertex="1" connectable="0">
          <mxGeometry x="0.6628" relative="1" as="geometry">
            <mxPoint as="offset" />
          </mxGeometry>
        </mxCell>
        <mxCell id="y770Z8pOE6YXqWTsRkas-5" style="edgeStyle=orthogonalEdgeStyle;rounded=0;orthogonalLoop=1;jettySize=auto;html=1;entryX=0.5;entryY=0;entryDx=0;entryDy=0;" parent="1" edge="1">
          <mxGeometry relative="1" as="geometry">
            <mxPoint x="425.6700000000001" y="139.01149425287355" as="sourcePoint" />
            <mxPoint x="541" y="203" as="targetPoint" />
          </mxGeometry>
        </mxCell>
        <mxCell id="y770Z8pOE6YXqWTsRkas-12" value="(N)" style="edgeLabel;html=1;align=center;verticalAlign=middle;resizable=0;points=[];" parent="y770Z8pOE6YXqWTsRkas-5" vertex="1" connectable="0">
          <mxGeometry x="0.632" y="-1" relative="1" as="geometry">
            <mxPoint as="offset" />
          </mxGeometry>
        </mxCell>
        <mxCell id="wNynJhRlxzuv9-eaUQP0-2" value="tiene" style="shape=associativeEntity;whiteSpace=wrap;html=1;align=center;" parent="1" vertex="1">
          <mxGeometry x="336" y="120" width="88.67" height="38" as="geometry" />
        </mxCell>
        <mxCell id="y770Z8pOE6YXqWTsRkas-3" style="edgeStyle=orthogonalEdgeStyle;rounded=0;orthogonalLoop=1;jettySize=auto;html=1;entryX=0.5;entryY=1;entryDx=0;entryDy=0;" parent="1" target="cgnMnG7LI3iDT3yTp2TT-2" edge="1">
          <mxGeometry relative="1" as="geometry">
            <mxPoint x="430" y="290" as="sourcePoint" />
          </mxGeometry>
        </mxCell>
        <mxCell id="y770Z8pOE6YXqWTsRkas-10" value="(N)" style="edgeLabel;html=1;align=center;verticalAlign=middle;resizable=0;points=[];" parent="y770Z8pOE6YXqWTsRkas-3" vertex="1" connectable="0">
          <mxGeometry x="0.7206" y="1" relative="1" as="geometry">
            <mxPoint y="-1" as="offset" />
          </mxGeometry>
        </mxCell>
        <mxCell id="wNynJhRlxzuv9-eaUQP0-7" value="alquila" style="shape=associativeEntity;whiteSpace=wrap;html=1;align=center;" parent="1" vertex="1">
          <mxGeometry x="336" y="260" width="93.34" height="40" as="geometry" />
        </mxCell>
        <mxCell id="wNynJhRlxzuv9-eaUQP0-18" value="Casa" style="ellipse;whiteSpace=wrap;html=1;align=center;" parent="1" vertex="1">
          <mxGeometry x="650" y="236" width="85" height="34" as="geometry" />
        </mxCell>
        <mxCell id="wNynJhRlxzuv9-eaUQP0-39" style="rounded=0;orthogonalLoop=1;jettySize=auto;html=1;entryX=0.75;entryY=1;entryDx=0;entryDy=0;" parent="1" source="wNynJhRlxzuv9-eaUQP0-19" target="cgnMnG7LI3iDT3yTp2TT-2" edge="1">
          <mxGeometry relative="1" as="geometry" />
        </mxCell>
        <mxCell id="wNynJhRlxzuv9-eaUQP0-19" value="Departamento" style="ellipse;whiteSpace=wrap;html=1;align=center;" parent="1" vertex="1">
          <mxGeometry x="610" y="310" width="100" height="40" as="geometry" />
        </mxCell>
        <mxCell id="wNynJhRlxzuv9-eaUQP0-37" style="rounded=0;orthogonalLoop=1;jettySize=auto;html=1;entryX=1;entryY=0.25;entryDx=0;entryDy=0;" parent="1" source="wNynJhRlxzuv9-eaUQP0-20" target="cgnMnG7LI3iDT3yTp2TT-2" edge="1">
          <mxGeometry relative="1" as="geometry" />
        </mxCell>
        <mxCell id="wNynJhRlxzuv9-eaUQP0-20" value="Local" style="ellipse;whiteSpace=wrap;html=1;align=center;" parent="1" vertex="1">
          <mxGeometry x="650" y="150" width="75" height="30" as="geometry" />
        </mxCell>
        <mxCell id="wNynJhRlxzuv9-eaUQP0-34" style="rounded=0;orthogonalLoop=1;jettySize=auto;html=1;entryX=0;entryY=0.5;entryDx=0;entryDy=0;" parent="1" source="wNynJhRlxzuv9-eaUQP0-21" target="cgnMnG7LI3iDT3yTp2TT-1" edge="1">
          <mxGeometry relative="1" as="geometry" />
        </mxCell>
        <mxCell id="wNynJhRlxzuv9-eaUQP0-21" value="Propietario" style="ellipse;whiteSpace=wrap;html=1;align=center;" parent="1" vertex="1">
          <mxGeometry x="40" y="203" width="75" height="30" as="geometry" />
        </mxCell>
        <mxCell id="wNynJhRlxzuv9-eaUQP0-35" style="rounded=0;orthogonalLoop=1;jettySize=auto;html=1;entryX=0.25;entryY=1;entryDx=0;entryDy=0;" parent="1" source="wNynJhRlxzuv9-eaUQP0-22" target="cgnMnG7LI3iDT3yTp2TT-1" edge="1">
          <mxGeometry relative="1" as="geometry" />
        </mxCell>
        <mxCell id="wNynJhRlxzuv9-eaUQP0-22" value="&lt;div&gt;Inquilino&lt;/div&gt;" style="ellipse;whiteSpace=wrap;html=1;align=center;" parent="1" vertex="1">
          <mxGeometry x="70" y="267" width="65" height="26" as="geometry" />
        </mxCell>
        <mxCell id="wNynJhRlxzuv9-eaUQP0-31" value="Id" style="ellipse;whiteSpace=wrap;html=1;align=center;fontStyle=4;" parent="1" vertex="1">
          <mxGeometry x="60" y="128" width="75" height="30" as="geometry" />
        </mxCell>
        <mxCell id="wNynJhRlxzuv9-eaUQP0-36" style="rounded=0;orthogonalLoop=1;jettySize=auto;html=1;entryX=0.75;entryY=0;entryDx=0;entryDy=0;" parent="1" source="wNynJhRlxzuv9-eaUQP0-32" target="cgnMnG7LI3iDT3yTp2TT-2" edge="1">
          <mxGeometry relative="1" as="geometry" />
        </mxCell>
        <mxCell id="wNynJhRlxzuv9-eaUQP0-32" value="Id" style="ellipse;whiteSpace=wrap;html=1;align=center;fontStyle=4;" parent="1" vertex="1">
          <mxGeometry x="590" y="90" width="75" height="30" as="geometry" />
        </mxCell>
        <mxCell id="wNynJhRlxzuv9-eaUQP0-33" style="rounded=0;orthogonalLoop=1;jettySize=auto;html=1;exitX=1;exitY=1;exitDx=0;exitDy=0;entryX=0.084;entryY=-0.036;entryDx=0;entryDy=0;entryPerimeter=0;" parent="1" source="wNynJhRlxzuv9-eaUQP0-31" target="cgnMnG7LI3iDT3yTp2TT-1" edge="1">
          <mxGeometry relative="1" as="geometry" />
        </mxCell>
        <mxCell id="wNynJhRlxzuv9-eaUQP0-38" style="rounded=0;orthogonalLoop=1;jettySize=auto;html=1;entryX=0.948;entryY=0.947;entryDx=0;entryDy=0;entryPerimeter=0;" parent="1" source="wNynJhRlxzuv9-eaUQP0-18" target="cgnMnG7LI3iDT3yTp2TT-2" edge="1">
          <mxGeometry relative="1" as="geometry" />
        </mxCell>
        <mxCell id="Bh4PRem3nLp7THpzN5E5-1" value="" style="endArrow=none;html=1;rounded=0;" edge="1" parent="1">
          <mxGeometry width="50" height="50" relative="1" as="geometry">
            <mxPoint x="10" y="410" as="sourcePoint" />
            <mxPoint x="820" y="410" as="targetPoint" />
          </mxGeometry>
        </mxCell>
      </root>
    </mxGraphModel>
  </diagram>
</mxfile>
